<?xml version="1.0" encoding="UTF-8" standalone="no"?>
<svg width="237px" height="124px" viewBox="0 0 237 124" version="1.1" xmlns="http://www.w3.org/2000/svg" xmlns:xlink="http://www.w3.org/1999/xlink" xmlns:sketch="http://www.bohemiancoding.com/sketch/ns">
    <!-- Generator: Sketch 3.3.2 (12043) - http://www.bohemiancoding.com/sketch -->
    <title>logo_square copy</title>
    <desc>Created with Sketch.</desc>
    <defs></defs>
    <g id="Page-1" stroke="none" stroke-width="1" fill="none" fill-rule="evenodd" sketch:type="MSPage">
        <g id="logo_square" sketch:type="MSLayerGroup" fill="#000000">
            <path d="M0.3,123.5 C0.6,122.1 1.5,121.3 2.6,120.6 C5.4,118.6 8.6,117.6 11.9,116.6 C19.1,114.4 26.5,113.2 33.9,112 C34.1,112 34.4,111.9 34.8,111.8 C34.6,111.3 34.4,110.9 34.2,110.5 C28.7,99.5 23.8,88.3 20.4,76.5 C18.3,69.4 17.2,62.1 17.5,54.7 C18.2,37 26.2,23.4 41,13.8 C50.2,7.9 60.3,4.5 71,2.8 C84.4,0.6 97.8,0.8 111.1,2.8 C116,3.5 120.9,4.6 125.8,5.5 C126.4,5.6 127.2,5.5 127.7,5.2 C132.7,2.2 138.1,0.5 144,1 C149.2,1.4 154.1,3.1 158.7,5.5 C163,7.8 167.1,10.4 171.4,12.7 C175.8,15 180.4,16.7 185.4,16.8 C187.5,16.8 189.5,16.5 191.6,16.3 C192.4,16.2 193.1,16.2 193.9,16.3 C195,16.4 195.6,17 195.8,18.1 C195.9,18.5 196.2,19 196.6,19.2 C200.2,20.6 203.1,22.9 205.8,25.5 C206.9,26.5 208,27.5 208.9,28.6 C212.4,32.7 217,34.7 222.2,35.6 C223.5,35.8 224.9,36.1 226.2,36.5 C228.1,37 228.3,37.4 228.3,39.4 C228.3,44.8 226.7,49.3 221.6,51.9 C219.4,53 216.9,53.9 214.5,54.2 C210.9,54.7 207.2,54.8 203.5,55 L203.5,54.6 C205.3,54.2 207.2,53.8 209,53.3 C212.5,52.4 215.9,51.3 218.9,49.2 C222.1,47 223.8,43.8 224,39.9 C224,39 223.8,38.7 222.9,38.5 C221,38.1 219.1,37.6 217.2,37.1 C213.9,36.1 211.2,34.3 209,31.8 C206.6,29 203.7,27 200.3,25.5 C196.2,23.7 192,22 187.8,20.4 C186.1,19.8 184.1,19.6 182.3,19.6 C181.2,19.6 180,20.1 179.1,20.7 C176.7,22.5 174.8,24.8 173.7,27.6 C173.5,24.3 174.7,21.4 175.9,18.3 C174.7,17.8 173.5,17.4 172.3,16.9 C167,14.7 161.6,12.6 156.4,10.2 C153.9,9 151.6,7.3 148.8,6.7 C138.4,4.1 129,6.4 120.6,12.9 C118.3,14.7 116.3,16.8 114.1,18.8 C116.7,14.3 120.3,10.8 124.5,7.3 C122.2,7.1 120.2,6.8 118.2,6.7 C110.1,6.4 102.1,5.9 94,6.1 C81.9,6.3 69.9,7.9 58.5,12.2 C49.5,15.6 41.5,20.5 35.6,28.3 C28.8,37.3 25.8,47.5 26.2,58.7 C26.5,68.9 29.6,78.4 33.6,87.7 C36.9,95.4 41.1,102.7 45.5,109.9 C45.7,110.2 46.3,110.5 46.6,110.5 C50.1,110.2 53.7,109.8 57.2,109.5 C55.5,101 53.8,92.5 52.2,84 C49.3,86.3 46.3,88.7 43.3,91.2 C42.2,90 41.2,88.9 40.1,87.7 C40.7,87.1 41.3,86.5 41.9,86 C45.1,83.1 48.3,80.2 51.4,77.2 C51.9,76.8 52.2,76 52.2,75.4 C52.3,70.1 53,64.8 54.1,59.6 C54.3,58.9 54.5,58.7 55.3,58.6 C56.7,58.4 58.1,57.9 59.5,57.5 C60.7,57.2 61.9,57 63.3,56.7 C62.5,60.7 61.9,64.3 61.2,67.9 C61.3,68 61.4,68 61.5,68.1 C67.7,62.4 73.9,56.7 80.2,50.9 C93.5,63.1 106.8,75.3 120.2,87.6 C119,88.9 118,90 116.8,91.3 C113.5,88.6 110.3,86 106.9,83.2 C106.8,83.9 106.8,84.3 106.8,84.8 C106.5,92 107.5,99.1 110.2,105.8 C110.5,106.4 110.7,106.9 111.5,106.9 C115.7,106.8 120,106.8 124.2,106.8 C124.4,106.8 124.6,106.8 124.9,106.7 C123,104.5 121.9,102.1 121.4,99.5 C120.4,94.7 120.9,90 122,85.3 C123.5,79.1 126.4,73.4 129.1,67.7 C132,61.5 134.8,55.2 136.4,48.5 C136.6,47.7 136.7,46.9 136.9,46.2 C137.3,47.2 137.6,48.3 138.1,49.3 C140.6,54.3 145.1,56.1 150.2,55.8 C153.4,55.6 156.6,54.9 159.8,54.5 C165.2,53.8 170.7,53.8 176.1,54.4 C181.5,55 186.8,55.9 192.1,56.7 C192.4,56.7 192.7,56.9 193,57.1 L189.1,57.1 C181.8,57.2 174.5,58 167.4,59.8 C162.7,61 158.2,62.6 154.2,65.4 C148.7,69.2 145.9,74.3 146.6,81.2 C147.1,85.5 148.7,89.5 150.8,93.2 C153.6,98.3 157.1,102.9 160.9,107.3 C161.2,107.6 161.7,107.9 162.1,107.9 C171.1,108.6 180.2,109 189.2,109.8 C203.6,111.1 217.9,112.8 231.9,116.5 C233.5,116.9 235,117.4 236.5,118.1 C232.8,117.7 229.1,117.2 225.5,116.9 C219.7,116.3 214,115.7 208.2,115.3 C199,114.7 189.7,114.1 180.4,113.7 C173.9,113.4 167.5,113.2 161,113.1 C150.8,112.9 140.7,112.7 130.5,112.7 C119.9,112.7 109.2,112.9 98.6,113.2 C87.4,113.6 76.2,114 65.1,114.9 C52.2,115.9 39.2,117.2 26.3,118.7 C17.7,119.7 9.2,121.3 1,123.9 C0.7,123.5 0.6,123.5 0.3,123.5 L0.3,123.5 Z M105.1,106.8 C104.8,106.3 104.7,106 104.5,105.7 C99.5,97.1 97.7,88 99.3,78.1 C99.4,77.4 99.2,76.9 98.6,76.5 C92.6,71.6 86.6,66.7 80.6,61.8 C80.4,61.6 80.1,61.4 79.8,61.3 C73.3,66.5 66.9,71.7 60.6,76.9 C60.3,77.2 60,77.7 60,78.1 C59.6,87.8 60.3,97.3 63.2,106.7 C63.9,109.1 63.3,108.8 66,108.6 C75.6,108.1 85.2,107.5 94.8,107.1 C98.2,106.9 101.6,106.9 105.1,106.8 L105.1,106.8 Z M143.1,106.7 C138.7,99.2 134.3,92 129.9,84.5 C129.6,85.1 129.5,85.4 129.3,85.8 C126.8,93.2 128.5,99.9 132.5,106.2 C132.7,106.5 133.1,106.7 133.4,106.7 C136.6,106.8 139.7,106.7 143.1,106.7 Z M193.4,31.3 C196.2,31.1 198.6,31 200.7,32.8 C198.6,33 196.6,33.2 194.5,32.6 C194.1,32.6 193.9,31.9 193.4,31.3 Z" id="Shape" sketch:type="MSShapeGroup"></path>
            <path d="M80.7,84.3 L80.7,80.4 L84.6,80.4 L84.6,84.3 L80.7,84.3 L80.7,84.3 Z" id="Shape" sketch:type="MSShapeGroup"></path>
            <path d="M79.1,84.3 L75.2,84.3 L75.2,80.4 L79.1,80.4 L79.1,84.3 L79.1,84.3 Z" id="Shape" sketch:type="MSShapeGroup"></path>
            <path d="M84.7,78.8 L80.8,78.8 L80.8,74.8 L84.7,74.8 L84.7,78.8 L84.7,78.8 Z" id="Shape" sketch:type="MSShapeGroup"></path>
            <path d="M75.2,74.8 L79.1,74.8 L79.1,78.7 L75.2,78.7 L75.2,74.8 L75.2,74.8 Z" id="Shape" sketch:type="MSShapeGroup"></path>
        </g>
    </g>
</svg>